<?xml version="1.0" encoding="UTF-8" standalone="no"?>
<!-- Created with Inkscape (http://www.inkscape.org/) -->

<svg
   width="42.858364mm"
   height="42.858883mm"
   viewBox="0 0 42.858364 42.858883"
   version="1.1"
   id="svg1"
   xmlns="http://www.w3.org/2000/svg"
   xmlns:svg="http://www.w3.org/2000/svg">
  <defs
     id="defs1" />
  <g
     id="layer1"
     transform="translate(-65.48179,-132.01623)">
    <path
       d="m 78.535258,148.0907 -1.407149,4.84467 h 3.697448 c 0.821604,0 1.518721,-0.20518 2.091346,-0.61599 0.576739,-0.42496 0.969923,-0.99889 1.179773,-1.72134 l 0.04961,-0.17001 c 0.209849,-0.72245 0.147421,-1.28884 -0.186552,-1.69964 -0.315692,-0.42497 -0.891257,-0.63769 -1.727026,-0.63769 z"
       style="stroke-width:0.529168;stroke-linecap:round;stroke-linejoin:round"
       id="path3" />
    <path
       d="m 86.910974,132.01623 a 21.429342,21.429342 0 0 0 -21.429183,21.42918 21.429342,21.429342 0 0 0 21.429183,21.4297 21.429342,21.429342 0 0 0 21.429186,-21.4297 21.429342,21.429342 0 0 0 -21.429186,-21.42918 z M 95.70837,145.711 c 1.784864,0 3.014983,0.49566 3.690214,1.48725 0.689396,0.99159 0.785196,2.34463 0.287321,4.05867 l -0.03721,0.12764 h -2.273246 l 0.05529,-0.1912 c 0.292144,-1.00576 0.254642,-1.82752 -0.112654,-2.46497 -0.353131,-0.63745 -1.089053,-0.95601 -2.208134,-0.95601 -1.133247,0 -2.119405,0.34665 -2.958476,1.04076 -0.834956,0.67995 -1.42949,1.62913 -1.783354,2.84737 l -1.037146,3.56981 c -0.349748,1.20407 -0.30664,2.15326 0.129192,2.84737 0.435831,0.69411 1.220614,1.04128 2.353861,1.04128 1.119081,0 2.040202,-0.31908 2.763656,-0.95653 0.741733,-0.65162 1.25658,-1.47286 1.544608,-2.46445 l 0.104903,-0.36122 h 2.273763 l -0.08682,0.29714 c -0.497878,1.71404 -1.379346,3.06708 -2.6448,4.05867 -1.251288,0.99159 -2.76938,1.48725 -4.554244,1.48725 -1.813195,0 -3.102853,-0.5097 -3.869014,-1.52963 -0.762047,-1.03408 -0.86137,-2.52157 -0.297657,-4.46226 l 1.012342,-3.48454 c 0.563713,-1.94068 1.524868,-3.42115 2.883545,-4.44107 1.362791,-1.03409 2.950855,-1.55133 4.76405,-1.55133 z m -18.862931,0.29766 h 6.247164 c 0.920763,0 1.681005,0.16305 2.28048,0.48886 0.617757,0.31164 1.031098,0.76465 1.240752,1.3596 0.223819,0.59496 0.216431,1.30334 -0.02222,2.12494 l -0.0677,0.23358 c -0.27157,0.93493 -0.716399,1.68595 -1.334286,2.25257 -0.599606,0.55246 -1.251116,0.94176 -1.954403,1.16841 l -0.0987,0.34003 c 0.530062,0.0283 0.908792,0.21244 1.135847,0.55242 0.231171,0.32581 0.255978,0.8004 0.07493,1.42368 l -1.431954,4.92994 h -2.316137 l 1.339453,-4.61109 c 0.111097,-0.38247 0.100444,-0.68699 -0.03204,-0.91364 -0.132483,-0.22665 -0.418178,-0.34003 -0.857312,-0.34003 h -4.525822 l -1.703772,5.86476 h -2.294433 z"
       style="stroke-width:0.529168;stroke-linecap:round;stroke-linejoin:round"
       id="path2" />
    <path
       d="m 95.70837,145.711 c -1.813195,0 -3.401259,0.51724 -4.76405,1.55133 -1.358677,1.01992 -2.319832,2.50039 -2.883545,4.44107 l -1.012342,3.48454 c -0.563713,1.94069 -0.46439,3.42818 0.297657,4.46226 0.766161,1.01993 2.055819,1.52963 3.869014,1.52963 1.784864,0 3.302956,-0.49566 4.554244,-1.48725 1.265454,-0.99159 2.146922,-2.34463 2.6448,-4.05867 l 0.08682,-0.29714 h -2.273763 l -0.104903,0.36122 c -0.288028,0.99159 -0.802875,1.81283 -1.544608,2.46445 -0.723454,0.63745 -1.644575,0.95653 -2.763656,0.95653 -1.133247,0 -1.91803,-0.34717 -2.353861,-1.04128 -0.435832,-0.69411 -0.47894,-1.6433 -0.129192,-2.84737 l 1.037146,-3.56981 c 0.353864,-1.21824 0.948398,-2.16742 1.783354,-2.84737 0.839071,-0.69411 1.825229,-1.04076 2.958476,-1.04076 1.119081,0 1.855003,0.31856 2.208134,0.95601 0.367296,0.63745 0.404798,1.45921 0.112654,2.46497 l -0.05529,0.1912 h 2.273246 l 0.03721,-0.12764 c 0.497875,-1.71404 0.402075,-3.06708 -0.287321,-4.05867 -0.675231,-0.99159 -1.90535,-1.48725 -3.690214,-1.48725 z"
       style="font-size:21.2484px;line-height:1.2;font-family:'Space Grotesk';-inkscape-font-specification:'Space Grotesk, @wght=500';font-variation-settings:'wght' 500;letter-spacing:-0.17707px;word-spacing:0px;fill:#ffffff;stroke-width:0.529168;stroke-linecap:round;stroke-linejoin:round"
       id="path5" />
    <path
       d="m 76.845439,146.00866 -4.32015,14.87403 h 2.294433 l 1.703772,-5.86476 h 4.525822 c 0.439134,0 0.724829,0.11338 0.857312,0.34003 0.132484,0.22665 0.143137,0.53117 0.03204,0.91364 l -1.339453,4.61109 h 2.316137 l 1.431954,-4.92994 c 0.181047,-0.62328 0.15624,-1.09787 -0.07493,-1.42368 -0.227055,-0.33998 -0.605785,-0.52409 -1.135847,-0.55242 l 0.0987,-0.34003 c 0.703287,-0.22665 1.354797,-0.61595 1.954403,-1.16841 0.617887,-0.56662 1.062716,-1.31764 1.334286,-2.25257 l 0.0677,-0.23358 c 0.238652,-0.8216 0.24604,-1.52998 0.02222,-2.12494 -0.209654,-0.59495 -0.622995,-1.04796 -1.240752,-1.3596 -0.599475,-0.32581 -1.359717,-0.48886 -2.28048,-0.48886 z m 1.689819,2.08204 h 3.697449 c 0.835769,0 1.411334,0.21272 1.727026,0.63769 0.333973,0.4108 0.396401,0.97719 0.186552,1.69964 l -0.04961,0.17001 c -0.20985,0.72245 -0.603034,1.29638 -1.179773,1.72134 -0.572625,0.41081 -1.269742,0.61599 -2.091346,0.61599 h -3.697448 z"
       style="font-size:21.2484px;line-height:1.2;font-family:'Space Grotesk';-inkscape-font-specification:'Space Grotesk, @wght=500';font-variation-settings:'wght' 500;letter-spacing:-0.17707px;word-spacing:0px;fill:#ffffff;stroke-width:0.529168;stroke-linecap:round;stroke-linejoin:round"
       id="path4" />
  </g>
</svg>
